{"title":"Run All Night 2015 HC HDRip XviD MP3 Idiocracy","uid":11896441,"size":788699136,"categoryP":"video","categoryS":"movies","magnet":"?xt=urn:btih:f4a5551962337c83cd5bb1f09bfc0f1fd60a0d7d&amp;dn=Run+All+Night+2015+HC+HDRip+XviD+MP3+Idiocracy&amp;tr=udp%3A%2F%2Ftracker.openbittorrent.com%3A80&amp;tr=udp%3A%2F%2Fopen.demonii.com%3A1337&amp;tr=udp%3A%2F%2Ftracker.coppersurfer.tk%3A6969&amp;tr=udp%3A%2F%2Fexodus.desync.com%3A6969","seeders":3,"leechers":1,"uploader":"Satafakap","files":2,"time":1431167746,"description":"Synopsis / Plot\n\nMobster and hit man Jimmy Conlon has one night to figure out where his loyalties lie: with his estranged son, Mike, whose life is in danger, or his longtime best friend, mob boss Shawn Maguire, who wants Mike to pay for the death of his own son.\n\nDirector: Jaume Collet-Serra\nWriter: Brad Ingelsby\nStars: Liam Neeson, Ed Harris, Joel Kinnaman\n &lt;a href=&quot;\nhttp://www.imdb.com/title/tt2199571/&quot; rel=&quot;nofollow&quot; target=&quot;_NEW&quot;&gt;\nhttp://www.imdb.com/title/tt2199571/&lt;/a&gt;\n\nGeneral\n\nComplete name       : Run.All.Night.2015.HC.HDRip.XviD.MP3-Idiocracy.avi\nFormat              : AVI\nFormat/Info         : Audio Video Interleave\nFile size           : 744 MiB\nDuration            : 1h 54mn\nOverall bit rate    : 910 Kbps\nWriting application : VirtualDubMod 1.5.10.3 | www.virtualdub-fr.org\nWriting library     : VirtualDubMod build 2550/release\nSource              : Run.All.Night.2015.HC.HDRip.XViD.AC3-ETRG - Thanks!\nSample              : Yes\n\nVideo\n\nID                                       : 0\nFormat                                   : MPEG-4 Visual\nFormat profile                           : Advanced Simple@L5\nFormat settings, BVOP                    : 2\nFormat settings, QPel                    : No\nFormat settings, GMC                     : No warppoints\nFormat settings, Matrix                  : Default (H.263)\nMuxing mode                              : Packed bitstream\nCodec ID                                 : XVID\nCodec ID/Hint                            : XviD\nDuration                                 : 1h 54mn\nBit rate                                 : 773 Kbps\nWidth                                    : 640 pixels\nHeight                                   : 272 pixels\nDisplay aspect ratio                     : 2.35:1\nOriginal display aspect ratio            : 2.35:1\nFrame rate                               : 23.976 fps\nColor space                              : YUV\nChroma subsampling                       : 4:2:0\nBit depth                                : 8 bits\nScan type                                : Progressive\nCompression mode                         : Lossy\nBits/(Pixel*Frame)                       : 0.185\nStream size                              : 632 MiB (85%)\nWriting library                          : XviD 64\n\nAudio\n\nID                                       : 1\nFormat                                   : MPEG Audio\nFormat version                           : Version 1\nFormat profile                           : Layer 3\nMode                                     : Joint stereo\nMode extension                           : MS Stereo\nCodec ID                                 : 55\nCodec ID/Hint                            : MP3\nDuration                                 : 1h 54mn\nBit rate mode                            : Constant\nBit rate                                 : 128 Kbps\nChannel(s)                               : 2 channels\nSampling rate                            : 48.0 KHz\nCompression mode                         : Lossy\nStream size                              : 105 MiB (14%)\nAlignment                                : Split accross interleaves\nInterleave, duration                     : 42 ms (1.00 video frame)\nInterleave, preload duration             : 500 ms\n\nScreenshots:\n &lt;a href=&quot;\nhttp://i.imgur.com/Ixt8GDg.jpg&quot; rel=&quot;nofollow&quot; target=&quot;_NEW&quot;&gt;\nhttp://i.imgur.com/Ixt8GDg.jpg&lt;/a&gt;\n &lt;a href=&quot;\nhttp://i.imgur.com/K5PpIqf.jpg&quot; rel=&quot;nofollow&quot; target=&quot;_NEW&quot;&gt;\nhttp://i.imgur.com/K5PpIqf.jpg&lt;/a&gt;\n &lt;a href=&quot;\nhttp://i.imgur.com/YxQzG3H.jpg&quot; rel=&quot;nofollow&quot; target=&quot;_NEW&quot;&gt;\nhttp://i.imgur.com/YxQzG3H.jpg&lt;/a&gt;\n &lt;a href=&quot;\nhttp://i.imgur.com/EOqOvJk.jpg&quot; rel=&quot;nofollow&quot; target=&quot;_NEW&quot;&gt;\nhttp://i.imgur.com/EOqOvJk.jpg&lt;/a&gt;\n &lt;a href=&quot;\nhttp://i.imgur.com/uJn0WVD.jpg&quot; rel=&quot;nofollow&quot; target=&quot;_NEW&quot;&gt;\nhttp://i.imgur.com/uJn0WVD.jpg&lt;/a&gt;","torrent":{"xt":"urn:btih:f4a5551962337c83cd5bb1f09bfc0f1fd60a0d7d","amp;dn":"Run+All+Night+2015+HC+HDRip+XviD+MP3+Idiocracy","amp;tr":["udp%3A%2F%2Ftracker.openbittorrent.com%3A80","udp%3A%2F%2Fopen.demonii.com%3A1337","udp%3A%2F%2Ftracker.coppersurfer.tk%3A6969","udp%3A%2F%2Fexodus.desync.com%3A6969"],"infoHash":"f4a5551962337c83cd5bb1f09bfc0f1fd60a0d7d","infoHashBuffer":{"type":"Buffer","data":[244,165,85,25,98,51,124,131,205,91,177,240,155,252,15,31,214,10,13,125]},"announce":[],"urlList":[]}}